<svg aria-hidden="true" style="position: absolute; width: 0; height: 0; overflow: hidden;" version="1.1" xmlns="http://www.w3.org/2000/svg" xmlns:xlink="http://www.w3.org/1999/xlink">
<defs>

<symbol id="icon-menu" viewBox="0 0 32 32">
<path d="M4 24h24v-2.667h-24v2.667zM4 17.333h24v-2.667h-24v2.667zM4 8v2.667h24v-2.667h-24z"></path>
</symbol>

<symbol id="icon-calendar" viewBox="0 0 32 32">
<path d="M24 14.4h-3.2v3.2h3.2v-3.2z"></path>
<path d="M17.6 14.4h-3.2v3.2h3.2v-3.2z"></path>
<path d="M11.2 14.4h-3.2v3.2h3.2v-3.2z"></path>
<path d="M27.2 3.2h-1.6v-3.2h-3.2v3.2h-12.8v-3.2h-3.2v3.2h-1.6c-1.776 0-3.184 1.44-3.184 3.2l-0.016 22.4c0 1.76 1.424 3.2 3.2 3.2h22.4c1.76 0 3.2-1.44 3.2-3.2v-22.4c0-1.76-1.44-3.2-3.2-3.2zM27.2 28.8h-22.4v-17.6h22.4v17.6z"></path>
</symbol>

<symbol id="icon-plus" viewBox="0 0 32 32">
<path d="M32 18.286h-13.714v13.714h-4.571v-13.714h-13.714v-4.571h13.714v-13.714h4.571v13.714h13.714v4.571z"></path>
</symbol>

<symbol id="icon-arrow" viewBox="0 0 64 64">
<path d="M50.667 16c-1.473 0-2.667 1.194-2.667 2.667v0 10.667c0 1.473-1.194 2.667-2.667 2.667v0h-25.573l3.467-3.44c0.485-0.485 0.784-1.154 0.784-1.893 0-1.479-1.199-2.678-2.678-2.678-0.739 0-1.409 0.3-1.893 0.784l-8 8c-0.236 0.246-0.425 0.538-0.554 0.862l-0.006 0.018c-0.127 0.3-0.2 0.648-0.2 1.013s0.073 0.714 0.207 1.031l-0.007-0.018c0.134 0.342 0.324 0.634 0.561 0.881l-0.001-0.001 8 8c0.483 0.487 1.153 0.789 1.893 0.789s1.41-0.302 1.893-0.789l0-0c0.487-0.483 0.789-1.153 0.789-1.893s-0.302-1.41-0.789-1.893l-0-0-3.467-3.44h25.573c4.418 0 8-3.582 8-8v0-10.667c0-1.473-1.194-2.667-2.667-2.667v0z"></path>
</symbol>

<symbol id="icon-close" viewBox="0 0 32 32">
<path d="M31.555 3.577l-3.133-3.133-12.422 12.422-12.422-12.422-3.133 3.133 12.422 12.422-12.422 12.422 3.133 3.133 12.422-12.422 12.422 12.422 3.133-3.133-12.422-12.422 12.422-12.422z"></path>
</symbol>

<symbol id="icon-search" viewBox="0 0 64 64">
<path d="M63.402 60.045l-16.579-16.58c3.697-4.539 5.922-10.322 5.922-16.62 0-14.543-11.829-26.373-26.372-26.373s-26.373 11.829-26.373 26.373c0 14.541 11.831 26.372 26.373 26.372 6.776 0 12.946-2.592 17.623-6.809l16.52 16.522c0.398 0.398 0.922 0.597 1.443 0.597 0.524 0 1.045-0.199 1.443-0.597 0.796-0.796 0.796-2.089-0.001-2.885zM2.719 26.844c0-13.042 10.61-23.653 23.653-23.653 13.041 0 23.651 10.61 23.651 23.653 0 6.255-2.461 11.935-6.439 16.171-0.019 0.016-0.039 0.022-0.059 0.038-0.027 0.029-0.035 0.065-0.061 0.093-4.31 4.517-10.371 7.349-17.091 7.349-13.044 0.001-23.654-10.609-23.654-23.65z"></path>
</symbol>

</defs>
</svg>
